solid 
facet normal -1 -0 -0
 outer loop
  vertex -0.0049 -0.0037000002 0.00035000005
  vertex -0.0049 -0.0037000002 0.00038
  vertex -0.0049 0.0049 0.00038
 endloop
endfacet
facet normal -1 0 0
 outer loop
  vertex -0.0049 0.0049 0.00038
  vertex -0.0049 0.0049 0
  vertex -0.0049 -0.0049 0
 endloop
endfacet
facet normal -1 -0 -0
 outer loop
  vertex -0.0049 -0.0049 0
  vertex -0.0049 -0.0049 0.00038
  vertex -0.0049 -0.0043 0.00038
 endloop
endfacet
facet normal -1 -0 0
 outer loop
  vertex -0.0049 -0.0049 0
  vertex -0.0049 -0.0043 0.00038
  vertex -0.0049 -0.0043 0.00035000005
 endloop
endfacet
facet normal -1 -0 0
 outer loop
  vertex -0.0049 -0.0037000002 0.00035000005
  vertex -0.0049 0.0049 0.00038
  vertex -0.0049 -0.0049 0
 endloop
endfacet
facet normal -1 0 -0
 outer loop
  vertex -0.0049 -0.0037000002 0.00035000005
  vertex -0.0049 -0.0049 0
  vertex -0.0049 -0.0043 0.00035000005
 endloop
endfacet
facet normal 0 1 0
 outer loop
  vertex -0.0049 0.0049 0
  vertex -0.0049 0.0049 0.00038
  vertex 0.0049 0.0049 0.00038
 endloop
endfacet
facet normal 0 1 -0
 outer loop
  vertex -0.0049 0.0049 0
  vertex 0.0049 0.0049 0.00038
  vertex 0.0049 0.0049 0
 endloop
endfacet
facet normal 1 -0 0
 outer loop
  vertex 0.0049 0.0037000002 0.00035000005
  vertex 0.0049 0.0037000002 0.00038
  vertex 0.0049 -0.0049 0.00038
 endloop
endfacet
facet normal 1 0 -0
 outer loop
  vertex 0.0049 -0.0049 0.00038
  vertex 0.0049 -0.0049 0
  vertex 0.0049 0.0049 0
 endloop
endfacet
facet normal 1 -0 0
 outer loop
  vertex 0.0049 0.0049 0
  vertex 0.0049 0.0049 0.00038
  vertex 0.0049 0.0043 0.00038
 endloop
endfacet
facet normal 1 -0 0
 outer loop
  vertex 0.0049 0.0049 0
  vertex 0.0049 0.0043 0.00038
  vertex 0.0049 0.0043 0.00035000005
 endloop
endfacet
facet normal 1 -0 -0
 outer loop
  vertex 0.0049 0.0037000002 0.00035000005
  vertex 0.0049 -0.0049 0.00038
  vertex 0.0049 0.0049 0
 endloop
endfacet
facet normal 1 -0 0
 outer loop
  vertex 0.0049 0.0049 0
  vertex 0.0049 0.0043 0.00035000005
  vertex 0.0049 0.0037000002 0.00035000005
 endloop
endfacet
facet normal 0 -1 0
 outer loop
  vertex 0.0049 -0.0049 0
  vertex 0.0049 -0.0049 0.00038
  vertex -0.0049 -0.0049 0.00038
 endloop
endfacet
facet normal 0 -1 0
 outer loop
  vertex 0.0049 -0.0049 0
  vertex -0.0049 -0.0049 0.00038
  vertex -0.0049 -0.0049 0
 endloop
endfacet
facet normal 0 0 -1
 outer loop
  vertex -0.0049 0.0049 0
  vertex 0.0049 0.0049 0
  vertex 0.0049 -0.0049 0
 endloop
endfacet
facet normal 0 0 -1
 outer loop
  vertex -0.0049 0.0049 0
  vertex 0.0049 -0.0049 0
  vertex -0.0049 -0.0049 0
 endloop
endfacet
facet normal 0 0 1
 outer loop
  vertex 0.0047 -0.0043 0.00038
  vertex -0.0049 -0.0043 0.00038
  vertex -0.0049 -0.0049 0.00038
 endloop
endfacet
facet normal 0 0 1
 outer loop
  vertex 0.0049 0.0037000002 0.00038
  vertex -0.0041 0.0037000002 0.00038
  vertex -0.0041 0.0023 0.00038
 endloop
endfacet
facet normal 0 -0 1
 outer loop
  vertex 0.0049 0.0037000002 0.00038
  vertex -0.0041 0.0023 0.00038
  vertex 0.0047 0.0023 0.00038
 endloop
endfacet
facet normal 0 -0 1
 outer loop
  vertex 0.0047 -0.0043 0.00038
  vertex -0.0049 -0.0049 0.00038
  vertex 0.0049 -0.0049 0.00038
 endloop
endfacet
facet normal 0 -0 1
 outer loop
  vertex 0.0047 -0.004 0.00038
  vertex 0.0047 -0.0043 0.00038
  vertex 0.0049 -0.0049 0.00038
 endloop
endfacet
facet normal -0 0 1
 outer loop
  vertex 0.0049 -0.0049 0.00038
  vertex 0.0049 0.0037000002 0.00038
  vertex 0.0047 0.0023 0.00038
 endloop
endfacet
facet normal -0 0 1
 outer loop
  vertex 0.0049 -0.0049 0.00038
  vertex 0.0047 0.0023 0.00038
  vertex 0.0047 0.002 0.00038
 endloop
endfacet
facet normal 0 -0 1
 outer loop
  vertex 0.0047 -0.0037000002 0.00038
  vertex 0.0047 -0.004 0.00038
  vertex 0.0049 -0.0049 0.00038
 endloop
endfacet
facet normal 0 -0 1
 outer loop
  vertex 0.0047 -0.0023 0.00038
  vertex 0.0047 -0.0037000002 0.00038
  vertex 0.0049 -0.0049 0.00038
 endloop
endfacet
facet normal -0 0 1
 outer loop
  vertex 0.0049 -0.0049 0.00038
  vertex 0.0047 0.002 0.00038
  vertex 0.0047 0.0017000001 0.00038
 endloop
endfacet
facet normal -0 0 1
 outer loop
  vertex 0.0049 -0.0049 0.00038
  vertex 0.0047 0.0017000001 0.00038
  vertex 0.0047 0.0003 0.00038
 endloop
endfacet
facet normal 0 -0 1
 outer loop
  vertex 0.0047 -0.0019999999 0.00038
  vertex 0.0047 -0.0023 0.00038
  vertex 0.0049 -0.0049 0.00038
 endloop
endfacet
facet normal 0 -0 1
 outer loop
  vertex -0.0041 -0.0003 0.00038
  vertex -0.0041 -0.0017000001 0.00038
  vertex 0.0047 -0.0017000001 0.00038
 endloop
endfacet
facet normal 0 -0 1
 outer loop
  vertex 0.0047 -0.0017000001 0.00038
  vertex 0.0047 -0.0019999999 0.00038
  vertex 0.0049 -0.0049 0.00038
 endloop
endfacet
facet normal -0 0 1
 outer loop
  vertex 0.0049 -0.0049 0.00038
  vertex 0.0047 0.0003 0.00038
  vertex 0.0047 0 0.00038
 endloop
endfacet
facet normal 0 -0 1
 outer loop
  vertex 0.0047 -0.0003 0.00038
  vertex -0.0041 -0.0003 0.00038
  vertex 0.0047 -0.0017000001 0.00038
 endloop
endfacet
facet normal -0 0 1
 outer loop
  vertex 0.0049 -0.0049 0.00038
  vertex 0.0047 0 0.00038
  vertex 0.0047 -0.0003 0.00038
 endloop
endfacet
facet normal -0 0 1
 outer loop
  vertex 0.0049 -0.0049 0.00038
  vertex 0.0047 -0.0003 0.00038
  vertex 0.0047 -0.0017000001 0.00038
 endloop
endfacet
facet normal 0 0 1
 outer loop
  vertex -0.0047 0.0043 0.00038
  vertex 0.0049 0.0043 0.00038
  vertex 0.0049 0.0049 0.00038
 endloop
endfacet
facet normal 0 0 1
 outer loop
  vertex -0.0049 -0.0037000002 0.00038
  vertex 0.0041 -0.0037000002 0.00038
  vertex 0.0041 -0.0023 0.00038
 endloop
endfacet
facet normal -0 0 1
 outer loop
  vertex -0.0049 -0.0037000002 0.00038
  vertex 0.0041 -0.0023 0.00038
  vertex -0.0047 -0.0023 0.00038
 endloop
endfacet
facet normal -0 0 1
 outer loop
  vertex -0.0047 0.0043 0.00038
  vertex 0.0049 0.0049 0.00038
  vertex -0.0049 0.0049 0.00038
 endloop
endfacet
facet normal 0 0 1
 outer loop
  vertex -0.0047 0.004 0.00038
  vertex -0.0047 0.0043 0.00038
  vertex -0.0049 0.0049 0.00038
 endloop
endfacet
facet normal 0 -0 1
 outer loop
  vertex -0.0049 0.0049 0.00038
  vertex -0.0049 -0.0037000002 0.00038
  vertex -0.0047 -0.0023 0.00038
 endloop
endfacet
facet normal 0 0 1
 outer loop
  vertex -0.0049 0.0049 0.00038
  vertex -0.0047 -0.0023 0.00038
  vertex -0.0047 -0.002 0.00038
 endloop
endfacet
facet normal 0 0 1
 outer loop
  vertex -0.0047 0.0037000002 0.00038
  vertex -0.0047 0.004 0.00038
  vertex -0.0049 0.0049 0.00038
 endloop
endfacet
facet normal 0 0 1
 outer loop
  vertex -0.0047 0.0023 0.00038
  vertex -0.0047 0.0037000002 0.00038
  vertex -0.0049 0.0049 0.00038
 endloop
endfacet
facet normal 0 0 1
 outer loop
  vertex -0.0049 0.0049 0.00038
  vertex -0.0047 -0.002 0.00038
  vertex -0.0047 -0.0017000001 0.00038
 endloop
endfacet
facet normal 0 0 1
 outer loop
  vertex -0.0049 0.0049 0.00038
  vertex -0.0047 -0.0017000001 0.00038
  vertex -0.0047 -0.0003 0.00038
 endloop
endfacet
facet normal 0 0 1
 outer loop
  vertex -0.0047 0.0019999999 0.00038
  vertex -0.0047 0.0023 0.00038
  vertex -0.0049 0.0049 0.00038
 endloop
endfacet
facet normal -0 0 1
 outer loop
  vertex 0.0041 0.0003 0.00038
  vertex 0.0041 0.0017000001 0.00038
  vertex -0.0047 0.0017000001 0.00038
 endloop
endfacet
facet normal 0 0 1
 outer loop
  vertex -0.0047 0.0017000001 0.00038
  vertex -0.0047 0.0019999999 0.00038
  vertex -0.0049 0.0049 0.00038
 endloop
endfacet
facet normal 0 0 1
 outer loop
  vertex -0.0049 0.0049 0.00038
  vertex -0.0047 -0.0003 0.00038
  vertex -0.0047 0 0.00038
 endloop
endfacet
facet normal 0 0 1
 outer loop
  vertex -0.0047 0.0003 0.00038
  vertex 0.0041 0.0003 0.00038
  vertex -0.0047 0.0017000001 0.00038
 endloop
endfacet
facet normal 0 0 1
 outer loop
  vertex -0.0049 0.0049 0.00038
  vertex -0.0047 0 0.00038
  vertex -0.0047 0.0003 0.00038
 endloop
endfacet
facet normal 0 0 1
 outer loop
  vertex -0.0049 0.0049 0.00038
  vertex -0.0047 0.0003 0.00038
  vertex -0.0047 0.0017000001 0.00038
 endloop
endfacet
facet normal -1 -0 -0
 outer loop
  vertex -0.0051 -0.0043 0.00035000005
  vertex -0.0051 -0.0043 0.00085
  vertex -0.0051 -0.0037000002 0.00085
 endloop
endfacet
facet normal -1 -0 0
 outer loop
  vertex -0.0051 -0.0043 0.00035000005
  vertex -0.0051 -0.0037000002 0.00085
  vertex -0.0051 -0.0037000002 0.00035000005
 endloop
endfacet
facet normal 0 1 0
 outer loop
  vertex -0.0049 -0.0037000002 0.00038
  vertex -0.0049 -0.0037000002 0.00035000005
  vertex -0.0051 -0.0037000002 0.00035000005
 endloop
endfacet
facet normal 0 1 -0
 outer loop
  vertex -0.0051 -0.0037000002 0.00085
  vertex 0.0041 -0.0037000002 0.00085
  vertex 0.0041 -0.0037000002 0.00038
 endloop
endfacet
facet normal -0 1 0
 outer loop
  vertex -0.0049 -0.0037000002 0.00038
  vertex -0.0051 -0.0037000002 0.00035000005
  vertex -0.0051 -0.0037000002 0.00085
 endloop
endfacet
facet normal 0 1 0
 outer loop
  vertex -0.0049 -0.0037000002 0.00038
  vertex -0.0051 -0.0037000002 0.00085
  vertex 0.0041 -0.0037000002 0.00038
 endloop
endfacet
facet normal 1 0 0
 outer loop
  vertex 0.0047 -0.004 0.00085
  vertex 0.0047 -0.0043 0.00085
  vertex 0.0047 -0.0043 0.00038
 endloop
endfacet
facet normal 1 0 -0
 outer loop
  vertex 0.0047 -0.004 0.00085
  vertex 0.0047 -0.0043 0.00038
  vertex 0.0047 -0.004 0.00038
 endloop
endfacet
facet normal 1 0 0
 outer loop
  vertex 0.0047 -0.0037000002 0.00085
  vertex 0.0047 -0.004 0.00085
  vertex 0.0047 -0.004 0.00038
 endloop
endfacet
facet normal 1 0 -0
 outer loop
  vertex 0.0047 -0.0037000002 0.00085
  vertex 0.0047 -0.004 0.00038
  vertex 0.0047 -0.0037000002 0.00038
 endloop
endfacet
facet normal -0 -1 -0
 outer loop
  vertex -0.0049 -0.0043 0.00038
  vertex 0.0047 -0.0043 0.00038
  vertex 0.0047 -0.0043 0.00085
 endloop
endfacet
facet normal 0 -1 0
 outer loop
  vertex -0.0051 -0.0043 0.00085
  vertex -0.0051 -0.0043 0.00035000005
  vertex -0.0049 -0.0043 0.00035000005
 endloop
endfacet
facet normal 0 -1 -0
 outer loop
  vertex -0.0049 -0.0043 0.00038
  vertex 0.0047 -0.0043 0.00085
  vertex -0.0051 -0.0043 0.00085
 endloop
endfacet
facet normal 0 -1 0
 outer loop
  vertex -0.0049 -0.0043 0.00038
  vertex -0.0051 -0.0043 0.00085
  vertex -0.0049 -0.0043 0.00035000005
 endloop
endfacet
facet normal 0 0 -1
 outer loop
  vertex -0.0049 -0.0043 0.00035000005
  vertex -0.0051 -0.0043 0.00035000005
  vertex -0.0051 -0.0037000002 0.00035000005
 endloop
endfacet
facet normal -0 -0 -1
 outer loop
  vertex -0.0049 -0.0043 0.00035000005
  vertex -0.0051 -0.0037000002 0.00035000005
  vertex -0.0049 -0.0037000002 0.00035000005
 endloop
endfacet
facet normal 0 0 1
 outer loop
  vertex -0.0051 -0.0043 0.00085
  vertex 0.0047 -0.0043 0.00085
  vertex 0.0047 -0.004 0.00085
 endloop
endfacet
facet normal -0 0 1
 outer loop
  vertex -0.0051 -0.0043 0.00085
  vertex 0.0047 -0.004 0.00085
  vertex 0.0041 -0.004 0.00085
 endloop
endfacet
facet normal 0 0 1
 outer loop
  vertex 0.0041 -0.0037000002 0.00085
  vertex -0.0051 -0.0037000002 0.00085
  vertex -0.0051 -0.0043 0.00085
 endloop
endfacet
facet normal 0 0 1
 outer loop
  vertex -0.0051 -0.0043 0.00085
  vertex 0.0041 -0.004 0.00085
  vertex 0.0041 -0.0037367349 0.00085
 endloop
endfacet
facet normal -0 0 1
 outer loop
  vertex 0.0041 -0.0037367349 0.00085
  vertex 0.0041 -0.0037000002 0.00085
  vertex -0.0051 -0.0043 0.00085
 endloop
endfacet
facet normal 0 0 1
 outer loop
  vertex 0.00419 -0.0037000002 0.00085
  vertex 0.0041 -0.0037000002 0.00085
  vertex 0.0041 -0.0037367349 0.00085
 endloop
endfacet
facet normal 0 -0 1
 outer loop
  vertex 0.00419 -0.0037000002 0.00085
  vertex 0.0041 -0.0037367349 0.00085
  vertex 0.0041804574 -0.0037318089 0.00085
 endloop
endfacet
facet normal 0 0 1
 outer loop
  vertex 0.0041804574 -0.0037318089 0.00085
  vertex 0.0041 -0.0037367349 0.00085
  vertex 0.0041 -0.004 0.00085
 endloop
endfacet
facet normal 0 0 1
 outer loop
  vertex 0.0041 -0.004 0.00085
  vertex 0.0047 -0.004 0.00085
  vertex 0.0047 -0.0037000002 0.00085
 endloop
endfacet
facet normal 0 0 1
 outer loop
  vertex 0.0047 -0.0037000002 0.00085
  vertex 0.00419 -0.0037000002 0.00085
  vertex 0.0041804574 -0.0037318089 0.00085
 endloop
endfacet
facet normal 0 -0 1
 outer loop
  vertex 0.0041804574 -0.0037318089 0.00085
  vertex 0.0041 -0.004 0.00085
  vertex 0.0047 -0.0037000002 0.00085
 endloop
endfacet
facet normal -1 -0 -0
 outer loop
  vertex 0.0041 -0.0037000002 0.00038
  vertex 0.0041 -0.0037000002 0.00085
  vertex 0.0041 -0.0023 0.00085
 endloop
endfacet
facet normal -1 -0 0
 outer loop
  vertex 0.0041 -0.0037000002 0.00038
  vertex 0.0041 -0.0023 0.00085
  vertex 0.0041 -0.0023 0.00038
 endloop
endfacet
facet normal 1 0 0
 outer loop
  vertex 0.0047 -0.0023 0.00085
  vertex 0.0047 -0.0037000002 0.00085
  vertex 0.0047 -0.0037000002 0.00038
 endloop
endfacet
facet normal 1 0 -0
 outer loop
  vertex 0.0047 -0.0023 0.00085
  vertex 0.0047 -0.0037000002 0.00038
  vertex 0.0047 -0.0023 0.00038
 endloop
endfacet
facet normal 1 0 0
 outer loop
  vertex 0.0047 -0.0023 0.00038
  vertex 0.0047 -0.0019999999 0.00038
  vertex 0.0047 -0.0019999999 0.00085
 endloop
endfacet
facet normal 1 -0 0
 outer loop
  vertex 0.0047 -0.0023 0.00038
  vertex 0.0047 -0.0019999999 0.00085
  vertex 0.0047 -0.0023 0.00085
 endloop
endfacet
facet normal 0 0 1
 outer loop
  vertex 0.00419 -0.0037000002 0.00085
  vertex 0.0047 -0.0037000002 0.00085
  vertex 0.0047 -0.0023 0.00085
 endloop
endfacet
facet normal 0 0 1
 outer loop
  vertex 0.0047 -0.0023 0.00085
  vertex 0.0041 -0.0023 0.00085
  vertex 0.0041 -0.0037000002 0.00085
 endloop
endfacet
facet normal -0 0 1
 outer loop
  vertex 0.00419 -0.0037000002 0.00085
  vertex 0.0047 -0.0023 0.00085
  vertex 0.0041 -0.0037000002 0.00085
 endloop
endfacet
facet normal -0 0 1
 outer loop
  vertex 0.0047 -0.0023 0.00085
  vertex 0.0047 -0.0019999999 0.00085
  vertex 0.0041 -0.0019999999 0.00085
 endloop
endfacet
facet normal -0 0 1
 outer loop
  vertex 0.0047 -0.0023 0.00085
  vertex 0.0041 -0.0019999999 0.00085
  vertex 0.0041 -0.0023 0.00085
 endloop
endfacet
facet normal -1 0 0
 outer loop
  vertex -0.0047 -0.002 0.00038
  vertex -0.0047 -0.0023 0.00038
  vertex -0.0047 -0.0023 0.00085
 endloop
endfacet
facet normal -1 -0 -0
 outer loop
  vertex -0.0047 -0.002 0.00038
  vertex -0.0047 -0.0023 0.00085
  vertex -0.0047 -0.002 0.00085
 endloop
endfacet
facet normal -1 -0 -0
 outer loop
  vertex -0.0047 -0.002 0.00038
  vertex -0.0047 -0.002 0.00085
  vertex -0.0047 -0.0017000001 0.00085
 endloop
endfacet
facet normal -1 -0 0
 outer loop
  vertex -0.0047 -0.002 0.00038
  vertex -0.0047 -0.0017000001 0.00085
  vertex -0.0047 -0.0017000001 0.00038
 endloop
endfacet
facet normal 0 1 0
 outer loop
  vertex 0.0047 -0.0017000001 0.00085
  vertex 0.0047 -0.0017000001 0.00038
  vertex -0.0041 -0.0017000001 0.00038
 endloop
endfacet
facet normal -0 1 0
 outer loop
  vertex 0.0047 -0.0017000001 0.00085
  vertex -0.0041 -0.0017000001 0.00038
  vertex -0.0041 -0.0017000001 0.00085
 endloop
endfacet
facet normal 1 0 0
 outer loop
  vertex 0.0047 -0.0019999999 0.00038
  vertex 0.0047 -0.0017000001 0.00038
  vertex 0.0047 -0.0017000001 0.00085
 endloop
endfacet
facet normal 1 -0 0
 outer loop
  vertex 0.0047 -0.0019999999 0.00038
  vertex 0.0047 -0.0017000001 0.00085
  vertex 0.0047 -0.0019999999 0.00085
 endloop
endfacet
facet normal 0 -1 0
 outer loop
  vertex 0.0041 -0.0023 0.00085
  vertex -0.0047 -0.0023 0.00085
  vertex -0.0047 -0.0023 0.00038
 endloop
endfacet
facet normal 0 -1 0
 outer loop
  vertex 0.0041 -0.0023 0.00085
  vertex -0.0047 -0.0023 0.00038
  vertex 0.0041 -0.0023 0.00038
 endloop
endfacet
facet normal 0 0 1
 outer loop
  vertex -0.0041 -0.002 0.00085
  vertex -0.0047 -0.002 0.00085
  vertex -0.0047 -0.0023 0.00085
 endloop
endfacet
facet normal 0 0 1
 outer loop
  vertex -0.0047 -0.0023 0.00085
  vertex 0.0041 -0.0023 0.00085
  vertex 0.0041 -0.0019999999 0.00085
 endloop
endfacet
facet normal 0 0 1
 outer loop
  vertex 0.0041 -0.0019999999 0.00085
  vertex 0.0047 -0.0019999999 0.00085
  vertex 0.0047 -0.0017000001 0.00085
 endloop
endfacet
facet normal 0 0 1
 outer loop
  vertex 0.0047 -0.0017000001 0.00085
  vertex -0.0041 -0.0017000001 0.00085
  vertex -0.0041 -0.002 0.00085
 endloop
endfacet
facet normal 0 -0 1
 outer loop
  vertex -0.0041 -0.002 0.00085
  vertex -0.0047 -0.0023 0.00085
  vertex 0.0041 -0.0019999999 0.00085
 endloop
endfacet
facet normal 0 0 1
 outer loop
  vertex -0.0041 -0.002 0.00085
  vertex 0.0041 -0.0019999999 0.00085
  vertex 0.0047 -0.0017000001 0.00085
 endloop
endfacet
facet normal 0 -0 1
 outer loop
  vertex -0.0047 -0.0017000001 0.00085
  vertex -0.0047 -0.002 0.00085
  vertex -0.0041 -0.002 0.00085
 endloop
endfacet
facet normal 0 0 1
 outer loop
  vertex -0.0047 -0.0017000001 0.00085
  vertex -0.0041 -0.002 0.00085
  vertex -0.0041 -0.0017000001 0.00085
 endloop
endfacet
facet normal -1 0 0
 outer loop
  vertex -0.0047 -0.0003 0.00038
  vertex -0.0047 -0.0017000001 0.00038
  vertex -0.0047 -0.0017000001 0.00085
 endloop
endfacet
facet normal -1 -0 -0
 outer loop
  vertex -0.0047 -0.0003 0.00038
  vertex -0.0047 -0.0017000001 0.00085
  vertex -0.0047 -0.0003 0.00085
 endloop
endfacet
facet normal -1 0 0
 outer loop
  vertex -0.0047 -0.0003 0.00085
  vertex -0.0047 0 0.00085
  vertex -0.0047 0 0.00038
 endloop
endfacet
facet normal -1 0 0
 outer loop
  vertex -0.0047 -0.0003 0.00085
  vertex -0.0047 0 0.00038
  vertex -0.0047 -0.0003 0.00038
 endloop
endfacet
facet normal 1 0 0
 outer loop
  vertex -0.0041 -0.0003 0.00085
  vertex -0.0041 -0.0017000001 0.00085
  vertex -0.0041 -0.0017000001 0.00038
 endloop
endfacet
facet normal 1 0 -0
 outer loop
  vertex -0.0041 -0.0003 0.00085
  vertex -0.0041 -0.0017000001 0.00038
  vertex -0.0041 -0.0003 0.00038
 endloop
endfacet
facet normal 0 0 1
 outer loop
  vertex -0.0045941174 -0.0003 0.00085
  vertex -0.0047 -0.0003 0.00085
  vertex -0.0047 -0.0017000001 0.00085
 endloop
endfacet
facet normal 0 0 1
 outer loop
  vertex -0.0047 -0.0017000001 0.00085
  vertex -0.0041 -0.0017000001 0.00085
  vertex -0.0041 -0.0003 0.00085
 endloop
endfacet
facet normal 0 -0 1
 outer loop
  vertex -0.0045941174 -0.0003 0.00085
  vertex -0.0047 -0.0017000001 0.00085
  vertex -0.0041 -0.0003 0.00085
 endloop
endfacet
facet normal 0 0 1
 outer loop
  vertex -0.0045964504 -0.00029339048 0.00085
  vertex -0.0045941174 -0.0003 0.00085
  vertex -0.0041 -0.0003 0.00085
 endloop
endfacet
facet normal -0 0 1
 outer loop
  vertex -0.0041 -0.0003 0.00085
  vertex -0.0041 0 0.00085
  vertex -0.0047 0 0.00085
 endloop
endfacet
facet normal 0 -0 1
 outer loop
  vertex -0.0047 0 0.00085
  vertex -0.0047 -0.0003 0.00085
  vertex -0.0045964504 -0.00029339048 0.00085
 endloop
endfacet
facet normal 0 0 1
 outer loop
  vertex -0.0045964504 -0.00029339048 0.00085
  vertex -0.0041 -0.0003 0.00085
  vertex -0.0047 0 0.00085
 endloop
endfacet
facet normal -0 0 1
 outer loop
  vertex -0.0045941174 -0.0003 0.00085
  vertex -0.0045964504 -0.00029339048 0.00085
  vertex -0.0047 -0.0003 0.00085
 endloop
endfacet
facet normal -1 0 0
 outer loop
  vertex -0.0047 0.0003 0.00085
  vertex -0.0047 0.0003 0.00038
  vertex -0.0047 0 0.00038
 endloop
endfacet
facet normal -1 0 0
 outer loop
  vertex -0.0047 0.0003 0.00085
  vertex -0.0047 0 0.00038
  vertex -0.0047 0 0.00085
 endloop
endfacet
facet normal 0 1 0
 outer loop
  vertex -0.0047 0.0003 0.00038
  vertex -0.0047 0.0003 0.00085
  vertex 0.0041 0.0003 0.00085
 endloop
endfacet
facet normal 0 1 -0
 outer loop
  vertex -0.0047 0.0003 0.00038
  vertex 0.0041 0.0003 0.00085
  vertex 0.0041 0.0003 0.00038
 endloop
endfacet
facet normal 1 0 0
 outer loop
  vertex 0.0047 0 0.00085
  vertex 0.0047 -0.0003 0.00085
  vertex 0.0047 -0.0003 0.00038
 endloop
endfacet
facet normal 1 0 -0
 outer loop
  vertex 0.0047 0 0.00085
  vertex 0.0047 -0.0003 0.00038
  vertex 0.0047 0 0.00038
 endloop
endfacet
facet normal 1 0 0
 outer loop
  vertex 0.0047 0.0003 0.00085
  vertex 0.0047 0 0.00085
  vertex 0.0047 0 0.00038
 endloop
endfacet
facet normal 1 0 -0
 outer loop
  vertex 0.0047 0.0003 0.00085
  vertex 0.0047 0 0.00038
  vertex 0.0047 0.0003 0.00038
 endloop
endfacet
facet normal 0 -1 0
 outer loop
  vertex 0.0047 -0.0003 0.00038
  vertex 0.0047 -0.0003 0.00085
  vertex -0.0041 -0.0003 0.00085
 endloop
endfacet
facet normal 0 -1 0
 outer loop
  vertex 0.0047 -0.0003 0.00038
  vertex -0.0041 -0.0003 0.00085
  vertex -0.0041 -0.0003 0.00038
 endloop
endfacet
facet normal 0 0 1
 outer loop
  vertex -0.0041 -0.0003 0.00085
  vertex 0.0047 -0.0003 0.00085
  vertex 0.0047 0 0.00085
 endloop
endfacet
facet normal -0 0 1
 outer loop
  vertex -0.0041 -0.0003 0.00085
  vertex 0.0047 0 0.00085
  vertex 0.0041 0 0.00085
 endloop
endfacet
facet normal 0 -0 1
 outer loop
  vertex -0.0047 0.0003 0.00085
  vertex -0.0047 0 0.00085
  vertex -0.0041 0 0.00085
 endloop
endfacet
facet normal 0 -0 1
 outer loop
  vertex -0.0041 0 0.00085
  vertex -0.0041 -0.0003 0.00085
  vertex 0.0041 0 0.00085
 endloop
endfacet
facet normal -0 0 1
 outer loop
  vertex 0.0041 0.00027954546 0.00085
  vertex 0.0041 0.0003 0.00085
  vertex -0.0047 0.0003 0.00085
 endloop
endfacet
facet normal 0 0 1
 outer loop
  vertex -0.0041 0 0.00085
  vertex 0.0041 0 0.00085
  vertex 0.0041 0.00027954546 0.00085
 endloop
endfacet
facet normal -0 -0 1
 outer loop
  vertex 0.0041 0.00027954546 0.00085
  vertex -0.0047 0.0003 0.00085
  vertex -0.0041 0 0.00085
 endloop
endfacet
facet normal 0 0 1
 outer loop
  vertex 0.00419 0.0003 0.00085
  vertex 0.0041 0.0003 0.00085
  vertex 0.0041 0.00027954546 0.00085
 endloop
endfacet
facet normal 0 -0 1
 outer loop
  vertex 0.00419 0.0003 0.00085
  vertex 0.0041 0.00027954546 0.00085
  vertex 0.0041847304 0.000282434 0.00085
 endloop
endfacet
facet normal 0 0 1
 outer loop
  vertex 0.0041847304 0.000282434 0.00085
  vertex 0.0041 0.00027954546 0.00085
  vertex 0.0041 0 0.00085
 endloop
endfacet
facet normal 0 0 1
 outer loop
  vertex 0.0041 0 0.00085
  vertex 0.0047 0 0.00085
  vertex 0.0047 0.0003 0.00085
 endloop
endfacet
facet normal 0 0 1
 outer loop
  vertex 0.0047 0.0003 0.00085
  vertex 0.00419 0.0003 0.00085
  vertex 0.0041847304 0.000282434 0.00085
 endloop
endfacet
facet normal 0 -0 1
 outer loop
  vertex 0.0041847304 0.000282434 0.00085
  vertex 0.0041 0 0.00085
  vertex 0.0047 0.0003 0.00085
 endloop
endfacet
facet normal -1 -0 -0
 outer loop
  vertex 0.0041 0.0003 0.00038
  vertex 0.0041 0.0003 0.00085
  vertex 0.0041 0.0017000001 0.00085
 endloop
endfacet
facet normal -1 -0 0
 outer loop
  vertex 0.0041 0.0003 0.00038
  vertex 0.0041 0.0017000001 0.00085
  vertex 0.0041 0.0017000001 0.00038
 endloop
endfacet
facet normal 1 0 0
 outer loop
  vertex 0.0047 0.0017000001 0.00085
  vertex 0.0047 0.0003 0.00085
  vertex 0.0047 0.0003 0.00038
 endloop
endfacet
facet normal 1 0 -0
 outer loop
  vertex 0.0047 0.0017000001 0.00085
  vertex 0.0047 0.0003 0.00038
  vertex 0.0047 0.0017000001 0.00038
 endloop
endfacet
facet normal 1 0 0
 outer loop
  vertex 0.0047 0.0017000001 0.00038
  vertex 0.0047 0.002 0.00038
  vertex 0.0047 0.002 0.00085
 endloop
endfacet
facet normal 1 -0 0
 outer loop
  vertex 0.0047 0.0017000001 0.00038
  vertex 0.0047 0.002 0.00085
  vertex 0.0047 0.0017000001 0.00085
 endloop
endfacet
facet normal 0 0 1
 outer loop
  vertex 0.00419 0.0003 0.00085
  vertex 0.0047 0.0003 0.00085
  vertex 0.0047 0.0017000001 0.00085
 endloop
endfacet
facet normal 0 0 1
 outer loop
  vertex 0.0047 0.0017000001 0.00085
  vertex 0.0041 0.0017000001 0.00085
  vertex 0.0041 0.0003 0.00085
 endloop
endfacet
facet normal -0 0 1
 outer loop
  vertex 0.00419 0.0003 0.00085
  vertex 0.0047 0.0017000001 0.00085
  vertex 0.0041 0.0003 0.00085
 endloop
endfacet
facet normal -0 0 1
 outer loop
  vertex 0.0047 0.0017000001 0.00085
  vertex 0.0047 0.002 0.00085
  vertex 0.0041 0.002 0.00085
 endloop
endfacet
facet normal -0 0 1
 outer loop
  vertex 0.0047 0.0017000001 0.00085
  vertex 0.0041 0.002 0.00085
  vertex 0.0041 0.0017000001 0.00085
 endloop
endfacet
facet normal -1 0 0
 outer loop
  vertex -0.0047 0.0019999999 0.00038
  vertex -0.0047 0.0017000001 0.00038
  vertex -0.0047 0.0017000001 0.00085
 endloop
endfacet
facet normal -1 -0 -0
 outer loop
  vertex -0.0047 0.0019999999 0.00038
  vertex -0.0047 0.0017000001 0.00085
  vertex -0.0047 0.0019999999 0.00085
 endloop
endfacet
facet normal -1 -0 -0
 outer loop
  vertex -0.0047 0.0019999999 0.00038
  vertex -0.0047 0.0019999999 0.00085
  vertex -0.0047 0.0023 0.00085
 endloop
endfacet
facet normal -1 -0 0
 outer loop
  vertex -0.0047 0.0019999999 0.00038
  vertex -0.0047 0.0023 0.00085
  vertex -0.0047 0.0023 0.00038
 endloop
endfacet
facet normal 0 1 0
 outer loop
  vertex 0.0047 0.0023 0.00085
  vertex 0.0047 0.0023 0.00038
  vertex -0.0041 0.0023 0.00038
 endloop
endfacet
facet normal -0 1 0
 outer loop
  vertex 0.0047 0.0023 0.00085
  vertex -0.0041 0.0023 0.00038
  vertex -0.0041 0.0023 0.00085
 endloop
endfacet
facet normal 1 0 0
 outer loop
  vertex 0.0047 0.002 0.00038
  vertex 0.0047 0.0023 0.00038
  vertex 0.0047 0.0023 0.00085
 endloop
endfacet
facet normal 1 -0 0
 outer loop
  vertex 0.0047 0.002 0.00038
  vertex 0.0047 0.0023 0.00085
  vertex 0.0047 0.002 0.00085
 endloop
endfacet
facet normal 0 -1 0
 outer loop
  vertex 0.0041 0.0017000001 0.00085
  vertex -0.0047 0.0017000001 0.00085
  vertex -0.0047 0.0017000001 0.00038
 endloop
endfacet
facet normal 0 -1 0
 outer loop
  vertex 0.0041 0.0017000001 0.00085
  vertex -0.0047 0.0017000001 0.00038
  vertex 0.0041 0.0017000001 0.00038
 endloop
endfacet
facet normal 0 0 1
 outer loop
  vertex -0.0041 0.0019999999 0.00085
  vertex -0.0047 0.0019999999 0.00085
  vertex -0.0047 0.0017000001 0.00085
 endloop
endfacet
facet normal 0 0 1
 outer loop
  vertex -0.0047 0.0017000001 0.00085
  vertex 0.0041 0.0017000001 0.00085
  vertex 0.0041 0.002 0.00085
 endloop
endfacet
facet normal 0 0 1
 outer loop
  vertex 0.0041 0.002 0.00085
  vertex 0.0047 0.002 0.00085
  vertex 0.0047 0.0023 0.00085
 endloop
endfacet
facet normal 0 0 1
 outer loop
  vertex 0.0047 0.0023 0.00085
  vertex -0.0041 0.0023 0.00085
  vertex -0.0041 0.0019999999 0.00085
 endloop
endfacet
facet normal 0 -0 1
 outer loop
  vertex -0.0041 0.0019999999 0.00085
  vertex -0.0047 0.0017000001 0.00085
  vertex 0.0041 0.002 0.00085
 endloop
endfacet
facet normal 0 0 1
 outer loop
  vertex -0.0041 0.0019999999 0.00085
  vertex 0.0041 0.002 0.00085
  vertex 0.0047 0.0023 0.00085
 endloop
endfacet
facet normal 0 -0 1
 outer loop
  vertex -0.0047 0.0023 0.00085
  vertex -0.0047 0.0019999999 0.00085
  vertex -0.0041 0.0019999999 0.00085
 endloop
endfacet
facet normal 0 0 1
 outer loop
  vertex -0.0047 0.0023 0.00085
  vertex -0.0041 0.0019999999 0.00085
  vertex -0.0041 0.0023 0.00085
 endloop
endfacet
facet normal -1 0 0
 outer loop
  vertex -0.0047 0.0037000002 0.00038
  vertex -0.0047 0.0023 0.00038
  vertex -0.0047 0.0023 0.00085
 endloop
endfacet
facet normal -1 -0 -0
 outer loop
  vertex -0.0047 0.0037000002 0.00038
  vertex -0.0047 0.0023 0.00085
  vertex -0.0047 0.0037000002 0.00085
 endloop
endfacet
facet normal -1 0 0
 outer loop
  vertex -0.0047 0.0037000002 0.00085
  vertex -0.0047 0.004 0.00085
  vertex -0.0047 0.004 0.00038
 endloop
endfacet
facet normal -1 0 0
 outer loop
  vertex -0.0047 0.0037000002 0.00085
  vertex -0.0047 0.004 0.00038
  vertex -0.0047 0.0037000002 0.00038
 endloop
endfacet
facet normal 1 0 -0
 outer loop
  vertex -0.0041 0.0023 0.00085
  vertex -0.0041 0.0023 0.00038
  vertex -0.0041 0.0037000002 0.00038
 endloop
endfacet
facet normal 1 0 0
 outer loop
  vertex -0.0041 0.0023 0.00085
  vertex -0.0041 0.0037000002 0.00038
  vertex -0.0041 0.0037000002 0.00085
 endloop
endfacet
facet normal 0 0 1
 outer loop
  vertex -0.0045941174 0.0037000002 0.00085
  vertex -0.0047 0.0037000002 0.00085
  vertex -0.0047 0.0023 0.00085
 endloop
endfacet
facet normal 0 0 1
 outer loop
  vertex -0.0047 0.0023 0.00085
  vertex -0.0041 0.0023 0.00085
  vertex -0.0041 0.0037000002 0.00085
 endloop
endfacet
facet normal -0 0 1
 outer loop
  vertex -0.0047 0.0023 0.00085
  vertex -0.0041 0.0037000002 0.00085
  vertex -0.0045941174 0.0037000002 0.00085
 endloop
endfacet
facet normal 0 0 1
 outer loop
  vertex -0.0045941174 0.0037000002 0.00085
  vertex -0.0041 0.0037000002 0.00085
  vertex -0.0041 0.004 0.00085
 endloop
endfacet
facet normal 0 0 1
 outer loop
  vertex -0.0041 0.004 0.00085
  vertex -0.0047 0.004 0.00085
  vertex -0.0047 0.0037000002 0.00085
 endloop
endfacet
facet normal 0 0 1
 outer loop
  vertex -0.0045963572 0.0037063458 0.00085
  vertex -0.0045941174 0.0037000002 0.00085
  vertex -0.0041 0.004 0.00085
 endloop
endfacet
facet normal 0 -0 1
 outer loop
  vertex -0.0041 0.004 0.00085
  vertex -0.0047 0.0037000002 0.00085
  vertex -0.0045963572 0.0037063458 0.00085
 endloop
endfacet
facet normal 0 0 1
 outer loop
  vertex -0.0047 0.0037000002 0.00085
  vertex -0.0045941174 0.0037000002 0.00085
  vertex -0.0045963572 0.0037063458 0.00085
 endloop
endfacet
facet normal -1 0 0
 outer loop
  vertex -0.0047 0.0043 0.00085
  vertex -0.0047 0.0043 0.00038
  vertex -0.0047 0.004 0.00038
 endloop
endfacet
facet normal -1 0 0
 outer loop
  vertex -0.0047 0.0043 0.00085
  vertex -0.0047 0.004 0.00038
  vertex -0.0047 0.004 0.00085
 endloop
endfacet
facet normal 0 1 0
 outer loop
  vertex -0.0047 0.0043 0.00038
  vertex -0.0047 0.0043 0.00085
  vertex 0.0051 0.0043 0.00085
 endloop
endfacet
facet normal 0 1 0
 outer loop
  vertex 0.0051 0.0043 0.00085
  vertex 0.0051 0.0043 0.00035000005
  vertex 0.0049 0.0043 0.00035000005
 endloop
endfacet
facet normal -0 1 0
 outer loop
  vertex 0.0049 0.0043 0.00038
  vertex -0.0047 0.0043 0.00038
  vertex 0.0051 0.0043 0.00085
 endloop
endfacet
facet normal -0 1 0
 outer loop
  vertex 0.0051 0.0043 0.00085
  vertex 0.0049 0.0043 0.00035000005
  vertex 0.0049 0.0043 0.00038
 endloop
endfacet
facet normal 1 -0 0
 outer loop
  vertex 0.0051 0.0043 0.00035000005
  vertex 0.0051 0.0043 0.00085
  vertex 0.0051 0.0037000002 0.00085
 endloop
endfacet
facet normal 1 -0 0
 outer loop
  vertex 0.0051 0.0043 0.00035000005
  vertex 0.0051 0.0037000002 0.00085
  vertex 0.0051 0.0037000002 0.00035000005
 endloop
endfacet
facet normal -0 -1 -0
 outer loop
  vertex 0.0049 0.0037000002 0.00035000005
  vertex 0.0051 0.0037000002 0.00035000005
  vertex 0.0051 0.0037000002 0.00085
 endloop
endfacet
facet normal 0 -1 0
 outer loop
  vertex 0.0051 0.0037000002 0.00085
  vertex -0.0041 0.0037000002 0.00085
  vertex -0.0041 0.0037000002 0.00038
 endloop
endfacet
facet normal -0 -1 0
 outer loop
  vertex 0.0049 0.0037000002 0.00038
  vertex 0.0049 0.0037000002 0.00035000005
  vertex 0.0051 0.0037000002 0.00085
 endloop
endfacet
facet normal 0 -1 0
 outer loop
  vertex 0.0051 0.0037000002 0.00085
  vertex -0.0041 0.0037000002 0.00038
  vertex 0.0049 0.0037000002 0.00038
 endloop
endfacet
facet normal 0 0 -1
 outer loop
  vertex 0.0051 0.0043 0.00035000005
  vertex 0.0051 0.0037000002 0.00035000005
  vertex 0.0049 0.0037000002 0.00035000005
 endloop
endfacet
facet normal 0 0 -1
 outer loop
  vertex 0.0051 0.0043 0.00035000005
  vertex 0.0049 0.0037000002 0.00035000005
  vertex 0.0049 0.0043 0.00035000005
 endloop
endfacet
facet normal 0 0 1
 outer loop
  vertex 0.0051 0.0043 0.00085
  vertex -0.0047 0.0043 0.00085
  vertex -0.0047 0.004 0.00085
 endloop
endfacet
facet normal 0 -0 1
 outer loop
  vertex -0.0041 0.004 0.00085
  vertex -0.0041 0.0037000002 0.00085
  vertex 0.0051 0.0037000002 0.00085
 endloop
endfacet
facet normal 0 -0 1
 outer loop
  vertex 0.0051 0.0043 0.00085
  vertex -0.0047 0.004 0.00085
  vertex -0.0041 0.004 0.00085
 endloop
endfacet
facet normal 0 0 1
 outer loop
  vertex -0.0041 0.004 0.00085
  vertex 0.0051 0.0037000002 0.00085
  vertex 0.0051 0.0043 0.00085
 endloop
endfacet
endsolid 
